<?xml version="1.0" encoding="utf-8"?>
<!-- Generator: Adobe Illustrator 18.1.0, SVG Export Plug-In . SVG Version: 6.00 Build 0)  -->
<!DOCTYPE svg PUBLIC "-//W3C//DTD SVG 1.1//EN" "http://www.w3.org/Graphics/SVG/1.1/DTD/svg11.dtd">
<svg version="1.1" id="Layer_1" xmlns="http://www.w3.org/2000/svg" xmlns:xlink="http://www.w3.org/1999/xlink" x="0px" y="0px"
	 viewBox="0 0 500 500" enable-background="new 0 0 500 500" xml:space="preserve">
<path fill="#FFFFFF" d="M141.3,258.1l138.2-138.2c2.1-2.1,5.6-2.1,7.8,0l27.5,27.5c2.1,2.1,2.1,5.6,0,7.8L212.7,257.1
	c-2.1,2.1-2.1,5.6,0,7.8l101.9,101.9c2.1,2.1,2.1,5.6,0,7.8L287.2,402c-2.1,2.1-5.6,2.1-7.8,0L141.3,263.7
	C139.7,262.2,139.7,259.6,141.3,258.1z"/>
<path fill="#FFFFFF" d="M250,484.6c-61.3,0-119-23.9-162.4-67.3S20.4,316.3,20.4,255c0-61.3,23.9-119,67.3-162.4
	s101-67.3,162.4-67.3s119,23.9,162.4,67.3s67.3,101,67.3,162.4c0,61.3-23.9,119-67.3,162.4S311.3,484.6,250,484.6z M250,38.6
	c-57.8,0-112.1,22.5-153,63.4s-63.4,95.2-63.4,153S56.1,367.1,97,408s95.2,63.4,153,63.4c57.8,0,112.1-22.5,153-63.4
	s63.4-95.2,63.4-153S443.9,142.9,403,102S307.8,38.6,250,38.6z"/>
</svg>
