<?xml version="1.0" encoding="utf-8"?>
<!-- Generator: Adobe Illustrator 18.1.0, SVG Export Plug-In . SVG Version: 6.00 Build 0)  -->
<!DOCTYPE svg PUBLIC "-//W3C//DTD SVG 1.1//EN" "http://www.w3.org/Graphics/SVG/1.1/DTD/svg11.dtd">
<svg version="1.1" id="Layer_1" xmlns="http://www.w3.org/2000/svg" xmlns:xlink="http://www.w3.org/1999/xlink" x="0px" y="0px"
	 viewBox="0 0 500 500" enable-background="new 0 0 500 500" xml:space="preserve">
<g>
	<path fill="#58595B" d="M74,411.2c0.2,0.4,0.4,1,0.5,1.4c0.2-0.5,0.4-1,0.5-1.4c0.2-0.4,0.4-0.9,0.7-1.4l13.1-23.8
		c0.3-0.4,0.4-0.6,0.7-0.7c0.3-0.1,0.6-0.2,1.1-0.2h3.8v38.8h-4.6v-28.5c0-0.4,0-0.8,0-1.2c0-0.4,0.1-0.9,0.1-1.3L76.8,417
		c-0.4,0.8-1.1,1.2-1.9,1.2h-0.7c-0.8,0-1.4-0.4-1.9-1.2l-13.6-24.4c0.1,0.4,0.1,0.9,0.1,1.3c0,0.4,0,0.9,0,1.2v28.5h-4.6v-38.8H58
		c0.4,0,0.8,0.1,1.1,0.2c0.3,0.1,0.5,0.4,0.7,0.7l13.4,23.8C73.6,410.2,73.8,410.6,74,411.2z"/>
	<path fill="#58595B" d="M163,423.8h-4.1c-0.4,0-0.9-0.1-1.2-0.4c-0.3-0.3-0.5-0.5-0.6-0.9l-3.7-9.4h-17.4l-3.7,9.4
		c-0.1,0.4-0.4,0.6-0.6,0.9c-0.3,0.3-0.7,0.4-1.2,0.4h-4l15.5-38.8h5.4L163,423.8z M137.6,409.4h14.5l-6.1-15.8
		c-0.4-1-0.8-2.2-1.2-3.7c-0.2,0.7-0.4,1.4-0.6,2.1c-0.2,0.6-0.4,1.2-0.5,1.6L137.6,409.4z"/>
	<path fill="#58595B" d="M200.7,407.6v16.2h-5.2V385h11c2.4,0,4.6,0.3,6.3,0.7c1.8,0.4,3.3,1.2,4.5,2.1c1.2,1,2.1,2.1,2.6,3.4
		c0.5,1.3,0.8,2.8,0.8,4.5c0,1.3-0.2,2.7-0.6,3.8s-1.1,2.2-1.9,3.2s-1.8,1.8-3,2.4c-1.2,0.6-2.5,1.2-4,1.5c0.6,0.4,1.2,0.9,1.7,1.6
		l11.3,15.4h-4.6c-1,0-1.7-0.4-2.1-1.1l-10.1-13.8c-0.3-0.4-0.6-0.7-1-0.9c-0.4-0.2-0.9-0.3-1.6-0.3H200.7z M200.7,403.8h5.5
		c1.5,0,2.9-0.2,4-0.5c1.2-0.4,2.1-0.9,2.9-1.6c0.8-0.7,1.3-1.5,1.8-2.4c0.4-1,0.6-2,0.6-3.1c0-2.3-0.8-4-2.3-5.3
		c-1.5-1.2-3.7-1.8-6.8-1.8h-5.7L200.7,403.8L200.7,403.8z"/>
	<path fill="#58595B" d="M282,385v4.4h-12.5v34.4h-5.3v-34.4h-12.6V385H282z"/>
	<path fill="#58595B" d="M320.7,423.8h-5.3V385h5.3V423.8z"/>
	<path fill="#58595B" d="M362,385.2c0.3,0.1,0.4,0.4,0.8,0.7l22.5,29.2c-0.1-0.4-0.1-0.9-0.1-1.3c0-0.4,0-0.9,0-1.2V385h4.6v38.8
		h-2.7c-0.4,0-0.8-0.1-1.1-0.2c-0.3-0.1-0.5-0.4-0.8-0.7l-22.4-29.2c0,0.4,0.1,0.9,0.1,1.3c0,0.4,0,0.8,0,1.2v27.7h-4.6v-38.8h2.7
		C361.4,385,361.7,385.1,362,385.2z"/>
	<path fill="#58595B" d="M450.1,385v4.3h-18.7v12.9h15.1v4.1h-15.1v13.2h18.7v4.3h-23.9V385L450.1,385L450.1,385z"/>
</g>
<path fill="#58595B" d="M387.6,322.7H129.5V63.8h258.1V322.7z M136.5,315.7h244.1v-245H136.5V315.7z"/>
<polygon fill="#B0E1DF" points="229.2,253.7 204.2,253.7 203.7,137.9 229.2,174.3 "/>
<polygon fill="#F16370" points="313.8,242 281,198.5 281,198.5 313.8,140.3 "/>
<g>
	<path fill="#58595B" d="M260,223.3c0.4-0.9,0.7-1.8,1.1-2.7c0.4-0.9,0.8-1.7,1.2-2.5l47.9-84.7c0.4-0.7,0.9-1.2,1.3-1.3
		c0.4-0.2,1.1-0.3,1.9-0.3h6.2v119.6l-7.8-3.3v-98.5c0-1.5,0.1-3,0.3-4.7l-48,85.3c-0.8,1.5-2,2.2-3.5,2.2h-1.3
		c-1.4,0-2.6-0.7-3.5-2.2l-49.3-85.4c0.2,1.7,0.3,3.3,0.3,4.8v103.9h-7.7V131.7h6.1c0.8,0,1.4,0.1,2,0.3c0.4,0.2,1,0.6,1.4,1.3
		l49.2,84.8C258.7,219.7,259.4,221.4,260,223.3z"/>
</g>
<g>
	<path fill="#58595B" d="M312.4,131.7L312.4,131.7c0.4,0,0.7,0,1.2,0H312.4z"/>
</g>
<g>
	<path fill="#58595B" d="M74,411.2c0.2,0.4,0.4,1,0.5,1.4c0.2-0.5,0.4-1,0.5-1.4c0.2-0.4,0.4-0.9,0.7-1.4l13.1-23.8
		c0.3-0.4,0.4-0.6,0.7-0.7c0.3-0.1,0.6-0.2,1.1-0.2h3.8v38.8h-4.6v-28.5c0-0.4,0-0.8,0-1.2c0-0.4,0.1-0.9,0.1-1.3L76.8,417
		c-0.4,0.8-1.1,1.2-1.9,1.2h-0.7c-0.8,0-1.4-0.4-1.9-1.2l-13.6-24.4c0.1,0.4,0.1,0.9,0.1,1.3c0,0.4,0,0.9,0,1.2v28.5h-4.6v-38.8H58
		c0.4,0,0.8,0.1,1.1,0.2c0.3,0.1,0.5,0.4,0.7,0.7l13.4,23.8C73.6,410.2,73.8,410.6,74,411.2z"/>
	<path fill="#58595B" d="M163,423.8h-4.1c-0.4,0-0.9-0.1-1.2-0.4c-0.3-0.3-0.5-0.5-0.6-0.9l-3.7-9.4h-17.4l-3.7,9.4
		c-0.1,0.4-0.4,0.6-0.6,0.9c-0.3,0.3-0.7,0.4-1.2,0.4h-4l15.5-38.8h5.4L163,423.8z M137.6,409.4h14.5l-6.1-15.8
		c-0.4-1-0.8-2.2-1.2-3.7c-0.2,0.7-0.4,1.4-0.6,2.1c-0.2,0.6-0.4,1.2-0.5,1.6L137.6,409.4z"/>
	<path fill="#58595B" d="M200.7,407.6v16.2h-5.2V385h11c2.4,0,4.6,0.3,6.3,0.7c1.8,0.5,3.3,1.2,4.5,2.1c1.2,1,2.1,2.1,2.6,3.4
		c0.5,1.3,0.8,2.8,0.8,4.5c0,1.3-0.2,2.7-0.6,3.8s-1.1,2.2-1.9,3.2s-1.8,1.8-3,2.4c-1.2,0.6-2.5,1.2-4,1.5c0.6,0.4,1.2,0.9,1.7,1.6
		l11.3,15.4h-4.6c-1,0-1.7-0.4-2.1-1.1l-10.1-13.8c-0.3-0.4-0.6-0.7-1-0.9c-0.4-0.2-0.9-0.3-1.6-0.3H200.7z M200.7,403.8h5.5
		c1.5,0,2.9-0.2,4-0.5c1.2-0.4,2.1-0.9,2.9-1.6c0.8-0.7,1.3-1.5,1.8-2.4c0.4-1,0.6-2,0.6-3.1c0-2.3-0.8-4-2.3-5.3
		c-1.5-1.2-3.7-1.8-6.8-1.8h-5.7L200.7,403.8L200.7,403.8z"/>
	<path fill="#58595B" d="M282,385v4.4h-12.5v34.4h-5.3v-34.4h-12.6V385H282z"/>
	<path fill="#58595B" d="M320.7,423.8h-5.3V385h5.3V423.8z"/>
	<path fill="#58595B" d="M362,385.2c0.3,0.1,0.4,0.4,0.8,0.7l22.5,29.2c-0.1-0.4-0.1-0.9-0.1-1.3c0-0.4,0-0.9,0-1.2V385h4.6v38.8
		h-2.7c-0.4,0-0.8-0.1-1.1-0.2c-0.3-0.2-0.5-0.4-0.8-0.7l-22.4-29.2c0,0.4,0.1,0.9,0.1,1.3c0,0.4,0,0.8,0,1.2v27.7h-4.6v-38.8h2.7
		C361.3,385,361.7,385.1,362,385.2z"/>
	<path fill="#58595B" d="M450.1,385v4.3h-18.7v12.9h15.1v4.1h-15.1v13.2h18.7v4.3h-23.9V385L450.1,385L450.1,385z"/>
</g>
<g>
	<path fill="#58595B" d="M313.6,131.7c-0.4,0-0.8,0-1.2,0.1c-0.3,0.1-0.5,0.1-0.8,0.2c-0.4,0.2-0.9,0.6-1.3,1.3l-33,58.3l-43.6-58.3
		c-0.5-0.7-1-1.2-1.4-1.3c-0.4-0.2-1.1-0.3-1.9-0.3h-4.3v31.7l-17.5-30.1c-0.4-0.7-0.9-1.2-1.4-1.3c-0.4-0.2-1.2-0.3-2-0.3h-6.1v122
		h7.7v-104c0-1.5-0.1-3.1-0.3-4.8l19.5,33.7v75.1h7.7v-61.9l22.2,38.4c0.9,1.5,2.1,2.2,3.5,2.2h1.3c1.5,0,2.7-0.7,3.5-2.2l13.8-24.6
		l34.7,46.3c0.8,1.2,1.9,1.7,3.2,1.7h4.2V131.7H313.6z M262.3,218c-0.4,0.8-0.9,1.6-1.2,2.5c-0.4,0.9-0.7,1.8-1.1,2.7
		c-0.6-1.9-1.3-3.6-2.2-5.2l-24.1-41.5v-25.6c0-1.5-0.1-3.2-0.3-4.9l39.6,52.9L262.3,218z M312.1,144.9c-0.2,1.7-0.3,3.2-0.3,4.7
		v88.3l-29.7-39.7L312.1,144.9z"/>
</g>
</svg>
