<?xml version="1.0" encoding="utf-8"?>
<!-- Generator: Adobe Illustrator 18.1.0, SVG Export Plug-In . SVG Version: 6.00 Build 0)  -->
<!DOCTYPE svg PUBLIC "-//W3C//DTD SVG 1.1//EN" "http://www.w3.org/Graphics/SVG/1.1/DTD/svg11.dtd">
<svg version="1.1" id="Layer_1" xmlns="http://www.w3.org/2000/svg" xmlns:xlink="http://www.w3.org/1999/xlink" x="0px" y="0px"
	 viewBox="0 0 50 50" enable-background="new 0 0 50 50" xml:space="preserve">
<path fill="#545559" d="M48.4,30.4l-2.8,4.5c-0.4,0.7-1.3,0.9-2,0.5L25.7,24.2c-0.4-0.3-1-0.3-1.5,0L6.3,35.4
	c-0.7,0.4-1.6,0.2-2-0.5l-2.8-4.5c-0.4-0.7-0.2-1.6,0.5-2l22-14c0.3-0.2,0.6-0.4,1-0.4l0,0c0.3,0,0.7,0.3,0.9,0.4l22,13.8
	C48.6,28.7,48.8,29.7,48.4,30.4z"/>
</svg>
